<?xml version="1.0" standalone="no"?>
<!DOCTYPE svg PUBLIC "-//W3C//DTD SVG 20010904//EN"
 "http://www.w3.org/TR/2001/REC-SVG-20010904/DTD/svg10.dtd">
<svg version="1.0" xmlns="http://www.w3.org/2000/svg"
 width="800.000000pt" height="800.000000pt" viewBox="0 0 800.000000 800.000000"
 preserveAspectRatio="xMidYMid meet">
<metadata>
Created by potrace 1.11, written by Peter Selinger 2001-2013
</metadata>
<g transform="translate(0.000000,800.000000) scale(0.100000,-0.100000)"
fill="#000000" stroke="none">
<path d="M5540 6446 l-65 -11 -3 -126 -3 -127 -62 -22 c-585 -210 -881 -850
-663 -1431 109 -292 345 -527 643 -641 l82 -31 3 -126 3 -126 65 -11 c36 -7
80 -12 98 -13 l32 -1 0 429 0 429 -37 12 c-174 56 -315 217 -342 391 -39 240
106 472 342 548 l37 13 0 429 0 429 -32 -1 c-18 -1 -62 -7 -98 -13z m-70 -591
l0 -105 -67 -44 c-325 -214 -419 -628 -217 -952 50 -82 158 -188 233 -230 l51
-29 0 -108 c0 -125 8 -121 -111 -61 -238 119 -420 364 -469 634 -19 103 -15
262 9 363 47 198 167 384 326 507 57 44 210 129 233 130 9 0 12 -27 12 -105z"/>
<path d="M5873 6031 l0 -429 57 -20 c76 -26 162 -83 211 -142 l41 -48 83 55
c76 50 83 58 73 76 -21 39 -147 156 -202 187 l-56 32 0 110 c0 127 -6 123 110
61 127 -68 250 -179 327 -292 2 -2 41 21 88 53 l86 57 -33 46 c-114 160 -327
316 -521 382 l-52 18 -3 126 c-2 109 -5 127 -20 131 -32 9 -136 26 -162 26
l-27 0 0 -429z"/>
<path d="M2988 5675 c-2 -1 -39 -5 -83 -9 -44 -3 -91 -8 -105 -11 -14 -3 -36
-7 -50 -10 -192 -36 -404 -135 -565 -264 -98 -80 -275 -264 -275 -288 0 -11
438 -443 448 -443 4 1 25 26 47 57 79 110 241 243 366 301 64 29 155 51 248
60 218 21 416 -78 500 -249 38 -79 46 -120 46 -234 -1 -155 -60 -295 -232
-545 -19 -27 -263 -332 -273 -340 -3 -3 -55 -63 -115 -135 -60 -71 -117 -139
-127 -150 -9 -11 -47 -56 -84 -100 -102 -122 -148 -176 -159 -189 -6 -6 -44
-51 -85 -101 -41 -49 -77 -92 -80 -95 -3 -3 -53 -61 -110 -130 -112 -133 -113
-135 -211 -250 -80 -94 -210 -250 -227 -271 -11 -15 93 -16 1218 -16 1128 0
1230 1 1231 16 1 21 1 582 0 601 -1 13 -67 15 -552 15 -303 0 -552 2 -554 5
-1 3 134 176 302 385 443 552 521 661 605 844 92 198 122 331 122 531 0 106
-8 191 -18 208 -2 4 -7 24 -10 46 -3 21 -18 68 -32 105 -132 335 -428 563
-827 636 -74 14 -349 29 -359 20z"/>
<path d="M6142 4801 c-50 -59 -136 -117 -212 -143 l-57 -20 0 -429 -1 -429 21
0 c25 0 144 18 169 26 15 4 18 22 20 130 l3 125 85 33 c189 71 375 212 488
370 l33 45 -86 57 c-47 32 -86 55 -88 53 -77 -114 -200 -224 -327 -292 -116
-63 -110 -66 -110 62 l0 110 33 17 c87 45 251 205 230 224 -4 4 -42 30 -84 58
l-77 51 -40 -48z"/>
</g>
</svg>
